<svg xmlns="http://www.w3.org/2000/svg" xmlns:ev="http://www.w3.org/2001/xml-events" xmlns:xlink="http://www.w3.org/1999/xlink" width="817.333" height="968.016" class="st17" color-interpolation-filters="sRGB" viewBox="0 0 613 726.014" xml:space="preserve"><style type="text/css">.st1,.st2{stroke:#1e5054;stroke-linecap:round;stroke-linejoin:round}.st1{fill:#fff;stroke-width:2}.st2{stroke-dasharray:7,5;stroke-width:1}.st3{fill:#102c2f;font-family:Calibri;font-size:1.00001em;font-weight:700}.st4{font-size:1em}.st5,.st6{stroke:#af1513}.st5{marker-end:url(#mrkr4-61);stroke-linecap:round;stroke-linejoin:round;stroke-width:1}.st6{fill:#af1513;fill-opacity:1;stroke-opacity:1;stroke-width:.23584905660377}.st7{fill:#fff;stroke:none;stroke-linecap:butt;stroke-width:7.2}.st8{fill:#610c0b;font-family:Calibri;font-size:.666664em}.st10,.st9{stroke:#af1513;stroke-opacity:.3}.st9{marker-end:url(#mrkr4-69);stroke-linecap:round;stroke-linejoin:round;stroke-width:1}.st10{fill:#af1513;fill-opacity:.3;stroke-width:.23584905660377}.st11,.st12{stroke:#1e5054;stroke-linecap:round;stroke-linejoin:round;stroke-width:1}.st11{fill:#1e5054;fill-opacity:0}.st12{fill:#fff}.st13,.st14{font-family:Calibri;font-size:.666664em}.st13{fill:#1e5155;font-weight:700}.st14{fill:#1e5054}.st15,.st16{stroke:#af1513;stroke-linecap:round;stroke-linejoin:round;stroke-width:1}.st15{marker-end:url(#mrkr3-99);stroke-dasharray:7,5}.st16{fill:#fff}.st17{fill:none;fill-rule:evenodd;font-size:12px;overflow:visible;stroke-linecap:square;stroke-miterlimit:3}</style><defs id="Markers"><g id="lend4"><path d="M 2 1 L 0 0 L 2 -1 L 2 1" style="stroke:none"/></g><marker id="mrkr4-61" class="st6" markerUnits="strokeWidth" orient="auto" overflow="visible" refX="-8.48"><use transform="scale(-4.24,-4.24)" xlink:href="#lend4"/></marker><marker id="mrkr4-69" class="st10" markerUnits="strokeWidth" orient="auto" overflow="visible" refX="-8.48"><use transform="scale(-4.24,-4.24)" xlink:href="#lend4"/></marker><g id="lend3"><path d="M 2 1 L 0 0 L 2 -1" style="stroke-linecap:round;stroke-linejoin:round;fill:none"/></g><marker id="mrkr3-99" class="st6" markerUnits="strokeWidth" orient="auto" overflow="visible"><use transform="scale(-4.24,-4.24)" xlink:href="#lend3"/></marker></defs><g><title>Docker Create</title><g id="group1-1" transform="translate(19,-633.214)"><title>Actor lifeline</title><desc>docker client</desc><g id="shape2-2" transform="translate(0,-4.5)"><title>Sheet.2</title><rect width="54" height="25.2" x="0" y="700.814" class="st1"/></g><g id="shape3-4" transform="translate(18,-37.8)"><title>Sheet.3</title><path d="M3.6 726.01 L3.6 708.01 L3.6 715.21 L0 715.21 L0 700.81 L1.8 699.01 L16.2 699.01 L18 700.81 L18 715.21 L14.4 715.21 L14.4 708.01 L14.4 726.01 L9 726.01 L9 711.61 L9 726.01 L3.6 726.01 ZM12.6 693.61 A3.6 3.6 -180 1 0 5.4 693.61 A3.6 3.6 -180 1 0 12.6 693.61 Z" class="st1"/></g><g id="shape4-6" transform="translate(18,615.214)"><title>Sheet.4</title></g><g id="shape5-8" transform="translate(753.014,726.014) rotate(90)"><title>Sheet.5</title><path d="M0 726.01 L594 726.01" class="st2"/></g><g id="shape1-11"><rect width="54" height="34.2" x="0" y="691.814" class="st1"/><text x="10.01" y="705.31" class="st3">docker <tspan x="13.22" class="st4" dy="1.2em">client</tspan></text></g></g><g id="group6-15" transform="translate(145,-633.214)"><title>Object lifeline</title><desc>docker API</desc><g id="shape7-16" transform="translate(0,-3.6)"><title>Sheet.7</title><rect width="54" height="25.2" x="0" y="700.814" class="st1"/></g><g id="shape8-18" transform="translate(18,-36)"><title>Sheet.8</title><path d="M9 726.01 a0 0 0 1 1 0 0 a0 0 0 1 1 0 0 Z" class="st1"/></g><g id="shape9-20" transform="translate(18,605.571)"><title>Sheet.9</title></g><g id="shape10-22" transform="translate(753.014,726.014) rotate(90)"><title>Sheet.10</title><path d="M0 726.01 L585 726.01" class="st2"/></g><g id="shape6-25"><rect width="54" height="32.4" x="0" y="693.614" class="st1"/><text x="10.01" y="706.21" class="st3">docker <tspan x="18.57" class="st4" dy="1.2em">API</tspan></text></g></g><g id="group21-29" transform="translate(306,-640.414)"><title>Object lifeline.21</title><desc>Port Layer</desc><g id="shape22-30"><title>Sheet.22</title><rect width="54" height="25.2" x="0" y="700.814" class="st1"/></g><g id="shape23-32" transform="translate(18,-28.8)"><title>Sheet.23</title><path d="M9 726.01 a0 0 0 1 1 0 0 a0 0 0 1 1 0 0 Z" class="st1"/></g><g id="shape24-34" transform="translate(18,621)"><title>Sheet.24</title></g><g id="shape25-36" transform="translate(753.014,726.014) rotate(90)"><title>Sheet.25</title><path d="M0 726.01 L603 726.01" class="st2"/></g><g id="shape21-39"><rect width="54" height="25.2" x="0" y="700.814" class="st1"/><text x="16.37" y="709.81" class="st3">Port <tspan x="13.51" class="st4" dy="1.2em">Layer</tspan></text></g></g><g id="group26-43" transform="translate(540,-640.414)"><title>Object lifeline.26</title><desc>vCenter</desc><g id="shape27-44"><title>Sheet.27</title><rect width="54" height="25.2" x="0" y="700.814" class="st1"/></g><g id="shape28-46" transform="translate(18,-28.8)"><title>Sheet.28</title><path d="M9 726.01 a0 0 0 1 1 0 0 a0 0 0 1 1 0 0 Z" class="st1"/></g><g id="shape29-48" transform="translate(18,621)"><title>Sheet.29</title></g><g id="shape30-50" transform="translate(753.014,726.014) rotate(90)"><title>Sheet.30</title><path d="M0 726.01 L603 726.01" class="st2"/></g><g id="shape26-53"><rect width="54" height="25.2" x="0" y="700.814" class="st1"/><text x="7.51" y="717.01" class="st3">vCenter</text></g></g><g id="shape31-56" transform="translate(46,-606.214)"><title>Message.22</title><desc>TLS (HTTP connection)</desc><path d="M0 717.01 L117.52 717.01" class="st5"/><rect width="72.628" height="9.6" x="26.686" y="712.215" class="st7"/><text x="26.69" y="719.41" class="st8">TLS (HTTP connection)</text></g><g id="shape83-64" transform="translate(172,-606.214)"><title>Message.22.83</title><desc>possible audit log mapping for all operations over this conne...</desc><path d="M0 717.01 L386.52 717.01" class="st9"/><rect width="212.619" height="9.6" x="91.191" y="712.215" class="st7"/><text x="91.19" y="719.41" class="st8">possible audit log mapping for all operations over this connection</text></g><g id="group87-72" transform="translate(46,-511.714)"><title>Optional fragment</title><g id="shape87-73"><rect width="125" height="58.5" x="0" y="667.514" class="st11"/></g><g id="shape88-75" transform="translate(0,-40.8964)"><title>Sheet.88</title><desc>opt</desc><path d="M0 726.01 L56.8 726.01 L64 718.81 L64 708.41 L0 708.41 L0 726.01 Z" class="st12"/><text x="4" y="719.61" class="st13">opt</text></g><g id="shape89-78" transform="translate(0,-23.2929)"><title>Sheet.89</title><desc>image does not exist</desc><text x="4" y="719.61" class="st14">image does not exist</text></g></g><g id="shape90-80" transform="translate(46,-570.214)"><title>Message.22.90</title><desc>create</desc><path d="M0 717.01 L113.02 717.01" class="st5"/><rect width="20.644" height="9.6" x="50.428" y="712.215" class="st7"/><text x="50.43" y="719.41" class="st8">create</text></g><g id="shape91-87" transform="translate(46,-516.214)"><title>Message.22.91</title><desc>pull</desc><path d="M0 717.01 L113.02 717.01" class="st5"/><rect width="12.078" height="9.6" x="54.711" y="712.215" class="st7"/><text x="54.71" y="719.41" class="st8">pull</text></g><g id="shape93-94" transform="translate(171,-525.214)"><title>Return Message.26</title><desc>404</desc><path d="M0 717.01 L-126 717.01" class="st15"/><rect width="12.164" height="9.6" x="-69.082" y="712.215" class="st7"/><text x="-69.08" y="719.41" class="st8">404</text></g><g id="shape94-102" transform="translate(-549.514,470.8) rotate(-90)"><title>Activation</title><rect width="324" height="9" x="0" y="717.014" class="st16"/></g></g></svg>