<svg xmlns="http://www.w3.org/2000/svg" xmlns:ev="http://www.w3.org/2001/xml-events" xmlns:xlink="http://www.w3.org/1999/xlink" width="1010.669" height="975.734" class="st19" color-interpolation-filters="sRGB" viewBox="0 0 758.002 731.801" xml:space="preserve"><style type="text/css">.st1,.st2{stroke:#1e5054;stroke-linecap:round;stroke-linejoin:round;stroke-width:1}.st1{fill:#1e5054;fill-opacity:0}.st2{fill:#fff}.st3,.st4{font-family:Calibri;font-size:.666664em}.st3{fill:#1e5155;font-weight:700}.st4{fill:#1e5054}.st5{fill:#fff;stroke:#1e5054;stroke-linecap:round;stroke-linejoin:round;stroke-width:2}.st6{fill:none}.st7{stroke:#1e5054;stroke-dasharray:7.00001,5.00001;stroke-linecap:round;stroke-linejoin:round;stroke-width:1}.st8{fill:#102c2f;font-family:Calibri;font-size:1.00001em;font-weight:700}.st9{font-size:1em}.st10,.st11{stroke:#af1513}.st10{marker-end:url(#mrkr4-78);stroke-linecap:round;stroke-linejoin:round;stroke-width:1}.st11{fill:#af1513;fill-opacity:1;stroke-opacity:1;stroke-width:.23584925362398}.st12{fill:#fff;stroke:none;stroke-linecap:butt}.st13{fill:#610c0b;font-family:Calibri;font-size:.666664em}.st14{fill:#fff;stroke:none;stroke-linecap:butt;stroke-width:7.2}.st15,.st16{stroke:#af1513;stroke-linecap:round;stroke-linejoin:round;stroke-width:1}.st15{fill:#fff}.st16{marker-end:url(#mrkr3-130);stroke-dasharray:7.00001,5.00001}.st17,.st18{stroke:#af1513;stroke-opacity:.3}.st17{marker-end:url(#mrkr4-281);stroke-linecap:round;stroke-linejoin:round;stroke-width:1}.st18{fill:#af1513;fill-opacity:.3;stroke-width:.23584925362398}.st19{fill:none;fill-rule:evenodd;font-size:12px;overflow:visible;stroke-linecap:square;stroke-miterlimit:3}</style><defs id="Markers"><g id="lend4"><path d="M 2 1 L 0 0 L 2 -1 L 2 1" style="stroke:none"/></g><marker id="mrkr4-78" class="st11" markerUnits="strokeWidth" orient="auto" overflow="visible" refX="-8.48"><use transform="scale(-4.2399964580525,-4.2399964580525)" xlink:href="#lend4"/></marker><g id="lend3"><path d="M 2 1 L 0 0 L 2 -1" style="stroke-linecap:round;stroke-linejoin:round;fill:none"/></g><marker id="mrkr3-130" class="st11" markerUnits="strokeWidth" orient="auto" overflow="visible"><use transform="scale(-4.2399964580525,-4.2399964580525)" xlink:href="#lend3"/></marker><marker id="mrkr4-281" class="st18" markerUnits="strokeWidth" orient="auto" overflow="visible" refX="-8.48"><use transform="scale(-4.2399964580525,-4.2399964580525)" xlink:href="#lend4"/></marker></defs><g><title>Docker Pull</title><g id="group1-1" transform="translate(298,-99.0001)"><title>Loop fragment</title><g id="shape2-2" transform="translate(0.000385679,0)"><title>shape47-2</title><rect width="216" height="423" x="0" y="308.8" class="st1"/></g><g id="shape3-4" transform="translate(0.000385679,-405.396)"><title>Sheet.3</title><desc>loop</desc><path d="M0 731.8 L56.8 731.8 L64 724.6 L64 714.2 L0 714.2 L0 731.8 Z" class="st2"/><text x="4" y="725.4" class="st3">loop</text></g><g id="shape4-7" transform="translate(1.07914E-12,-387.794)"><title>Sheet.4</title><desc>fsLayers</desc><text x="4" y="725.4" class="st4">fsLayers</text></g></g><g id="group5-9" transform="translate(253.001,-45)"><title>Object lifeline.11</title><desc>imagec</desc><g id="shape6-10" transform="translate(-2.39808E-14,-594.001)"><title>Sheet.6</title><rect width="54" height="25.2" x="0" y="706.601" class="st5"/></g><g id="shape7-12" transform="translate(18,-622.801)"><title>Sheet.7</title></g><g id="shape9-13" transform="translate(758.801,137.8) rotate(90)"><title>Sheet.9</title><path d="M0 731.8 L594 731.8 L0 731.8 Z" class="st6"/><path d="M0 731.8 L594 731.8" class="st7"/></g><g id="shape10-16" transform="translate(-2.39808E-14,-594.001)"><title>shape11-19</title><desc>imagec</desc><rect width="54" height="25.2" x="0" y="706.601" class="st5"/><text x="9.31" y="722.8" class="st8">imagec</text></g></g><g id="group11-19" transform="translate(19.0004,-45)"><title>Actor lifeline</title><desc>docker client</desc><g id="shape12-20" transform="translate(-7.99361E-15,-598.501)"><title>Sheet.12</title><rect width="54" height="25.2" x="0" y="706.601" class="st5"/></g><g id="shape13-22" transform="translate(18,-631.801)"><title>Sheet.13</title><path d="M3.6 731.8 L3.6 713.8 L3.6 721 L0 721 L0 706.6 L1.8 704.8 L16.2 704.8 L18 706.6 L18 721 L14.4 721 L14.4 713.8 L14.4 731.8 L9 731.8 L9 717.4 L9 731.8 L3.6 731.8 ZM12.6 699.4 A3.6 3.6 -180 1 0 5.4 699.4 A3.6 3.6 -180 1 0 12.6 699.4 Z" class="st5"/></g><g id="shape15-24" transform="translate(758.801,137.8) rotate(90)"><title>Sheet.15</title><path d="M0 731.8 L594 731.8 L0 731.8 Z" class="st6"/><path d="M0 731.8 L594 731.8" class="st7"/></g><g id="shape16-27" transform="translate(-7.99361E-15,-594.001)"><title>shape1-32</title><desc>docker client</desc><rect width="54" height="34.2" x="0" y="697.601" class="st5"/><text x="10.01" y="711.1" class="st8">docker <tspan x="13.22" class="st9" dy="1.2em">client</tspan></text></g></g><g id="group17-31" transform="translate(145.001,-54.0001)"><title>Object lifeline</title><desc>docker API</desc><g id="shape18-32" transform="translate(0,-588.601)"><title>Sheet.18</title><rect width="54" height="25.2" x="0" y="706.601" class="st5"/></g><g id="shape19-34" transform="translate(18,-621.001)"><title>Sheet.19</title></g><g id="shape21-35" transform="translate(758.801,146.8) rotate(90)"><title>Sheet.21</title><path d="M0 731.8 L585 731.8 L0 731.8 Z" class="st6"/><path d="M0 731.8 L585 731.8" class="st7"/></g><g id="shape22-38" transform="translate(0,-585.001)"><title>shape6-46</title><desc>docker API</desc><rect width="54" height="32.4" x="0" y="699.401" class="st5"/><text x="10.01" y="712" class="st8">docker <tspan x="18.57" class="st9" dy="1.2em">API</tspan></text></g></g><g id="group23-42" transform="translate(361.001,-351)"><title>Object lifeline.16</title><desc>registry</desc><g id="shape24-43" transform="translate(0,-288)"><title>Sheet.24</title><rect width="54" height="25.2" x="0" y="706.601" class="st5"/></g><g id="shape25-45" transform="translate(18,-316.8)"><title>Sheet.25</title></g><g id="shape27-46" transform="translate(758.801,443.8) rotate(90)"><title>Sheet.27</title><path d="M0 731.8 L288 731.8 L0 731.8 Z" class="st6"/><path d="M0 731.8 L288 731.8" class="st7"/></g><g id="shape28-49" transform="translate(0,-288)"><title>shape16-60</title><desc>registry</desc><rect width="54" height="25.2" x="0" y="706.601" class="st5"/><text x="8.08" y="722.8" class="st8">registry</text></g></g><g id="group29-52" transform="translate(505.001,-36)"><title>Object lifeline.21</title><desc>Port Layer</desc><g id="shape30-53" transform="translate(0,-603.001)"><title>Sheet.30</title><rect width="54" height="25.2" x="0" y="706.601" class="st5"/></g><g id="shape31-55" transform="translate(18,-631.801)"><title>Sheet.31</title></g><g id="shape33-56" transform="translate(758.801,128.8) rotate(90)"><title>Sheet.33</title><path d="M0 731.8 L603 731.8 L0 731.8 Z" class="st6"/><path d="M0 731.8 L603 731.8" class="st7"/></g><g id="shape34-59" transform="translate(0,-603.001)"><title>shape21-73</title><desc>Port Layer</desc><rect width="54" height="25.2" x="0" y="706.601" class="st5"/><text x="16.37" y="715.6" class="st8">Port <tspan x="13.51" class="st9" dy="1.2em">Layer</tspan></text></g></g><g id="group35-63" transform="translate(685.001,-36)"><title>Object lifeline.26</title><desc>vCenter</desc><g id="shape36-64" transform="translate(2.79776E-14,-603.001)"><title>Sheet.36</title><rect width="54" height="25.2" x="0" y="706.601" class="st5"/></g><g id="shape37-66" transform="translate(18,-631.801)"><title>Sheet.37</title></g><g id="shape39-67" transform="translate(758.801,128.8) rotate(90)"><title>Sheet.39</title><path d="M0 731.8 L603 731.8 L0 731.8 Z" class="st6"/><path d="M0 731.8 L603 731.8" class="st7"/></g><g id="shape40-70" transform="translate(2.79776E-14,-603.001)"><title>shape26-87</title><desc>vCenter</desc><rect width="54" height="25.2" x="0" y="706.601" class="st5"/><text x="7.51" y="722.8" class="st8">vCenter</text></g></g><g id="shape41-73" transform="translate(46.0004,-621.001)"><title>Message.22</title><desc>TLS (HTTP connection)</desc><path d="M0 731.8 L117.52 731.8 L117.52 731.8" class="st10"/><rect width="72.628" height="9.6" x="26.686" y="727.001" class="st12"/><text x="26.69" y="734.2" class="st13">TLS (HTTP connection)</text></g><g id="shape42-81" transform="translate(46.0004,-585.001)"><title>Message.22.32</title><desc>login</desc><path d="M0 731.8 L117.52 731.8 L117.52 731.8" class="st10"/><rect width="15.859" height="9.6" x="55.07" y="727.001" class="st14"/><text x="55.07" y="734.2" class="st13">login</text></g><g id="shape43-88" transform="translate(46.0004,-549.001)"><title>Message.22.33</title><desc>pull</desc><path d="M0 731.8 L117.52 731.8 L117.52 731.8" class="st10"/><rect width="12.078" height="9.6" x="56.961" y="727.001" class="st14"/><text x="56.96" y="734.2" class="st13">pull</text></g><g id="shape44-95" transform="translate(172.001,-585.001)"><title>Message.22.34</title><path d="M0 731.8 L99.52 731.8 L99.52 731.8" class="st10"/></g><g id="shape45-100" transform="translate(280.001,-585.001)"><title>Message.22.35</title><path d="M0 731.8 L99.52 731.8 L99.52 731.8" class="st10"/></g><g id="shape46-105" transform="translate(-555.3,632.801) rotate(-90)"><title>Activation</title><rect width="450" height="9" x="0" y="722.801" class="st15"/></g><g id="group47-107" transform="translate(46.0004,-570.601)"><title>Optional fragment</title><g id="shape48-108"><title>shape37-125</title><rect width="342" height="34.2" x="0" y="697.601" class="st1"/></g><g id="shape49-110" transform="translate(-9.19265E-14,-16.5964)"><title>Sheet.49</title><desc>opt</desc><path d="M0 731.8 L56.8 731.8 L64 724.6 L64 714.2 L0 714.2 L0 731.8 Z" class="st2"/><text x="4" y="725.4" class="st3">opt</text></g></g><g id="shape50-113" transform="translate(176.501,-549.001)"><title>Message.22.44</title><path d="M0 731.8 L95.02 731.8 L95.02 731.8" class="st10"/></g><g id="shape51-118" transform="translate(280.001,-549.001)"><title>Message.22.45</title><desc>resolve</desc><path d="M0 731.8 L99.52 731.8 L99.52 731.8" class="st10"/><rect width="23.547" height="9.6" x="42.227" y="727.001" class="st14"/><text x="42.23" y="734.2" class="st13">resolve</text></g><g id="shape52-125" transform="translate(280.001,-540.001)"><title>Return Message.26</title><desc>manifest</desc><path d="M108 731.8 L0 731.8" class="st16"/><rect width="28.492" height="9.6" x="39.754" y="727.001" class="st14"/><text x="39.75" y="734.2" class="st13">manifest</text></g><g id="shape53-133" transform="translate(284.501,-477.001)"><title>Message.22.53</title><desc>getLayer</desc><path d="M0 731.8 L239.02 731.8 L239.02 731.8" class="st10"/><rect width="28.011" height="9.6" x="109.744" y="727.001" class="st14"/><text x="109.74" y="734.2" class="st13">getLayer</text></g><g id="shape54-140" transform="translate(284.501,-423)"><title>Return Message.26.54</title><desc>handle</desc><path d="M247.5 731.8 L0 731.8" class="st16"/><rect width="22.258" height="9.6" x="112.621" y="727.001" class="st14"/><text x="112.62" y="734.2" class="st13">handle</text></g><g id="shape55-147" transform="translate(284.501,-306)"><title>Message.22.59</title><desc>createLayer</desc><path d="M0 731.8 L239.02 731.8 L239.02 731.8" class="st10"/><rect width="38.23" height="9.6" x="104.635" y="727.001" class="st14"/><text x="104.63" y="734.2" class="st13">createLayer</text></g><g id="shape56-154" transform="translate(532.001,-306)"><title>Message.22.60</title><desc>create VMDK</desc><path d="M0 731.8 L171.52 731.8 L171.52 731.8" class="st10"/><rect width="42.91" height="9.6" x="68.545" y="727.001" class="st14"/><text x="68.55" y="734.2" class="st13">create VMDK</text></g><g id="shape57-161" transform="translate(532.001,-477.001)"><title>Message.22.61</title><desc>exists?</desc><path d="M0 731.8 L171.52 731.8 L171.52 731.8" class="st10"/><rect width="21.925" height="9.6" x="79.037" y="727.001" class="st14"/><text x="79.04" y="734.2" class="st13">exists?</text></g><g id="shape58-168" transform="translate(532.001,-423)"><title>Self Message.24.63</title><desc>map result to handle</desc><path d="M0 695.8 L18 695.8 L18 731.8 L8.48 731.8 L8.48 731.8" class="st10"/><rect width="67.624" height="9.6" x="-33.812" y="709.001" class="st14"/><text x="-33.81" y="716.2" class="st13">map result to handle</text></g><g id="shape59-175" transform="translate(532.001,-468.001)"><title>Return Message.26.64</title><desc>true/false/blob?</desc><path d="M180 731.8 L0 731.8" class="st16"/><rect width="53.218" height="9.6" x="63.391" y="727.001" class="st14"/><text x="63.39" y="734.2" class="st13">true/false/blob?</text></g><g id="shape60-182" transform="translate(532.001,-288)"><title>Message.22.65</title><desc>attach VMDK</desc><path d="M0 731.8 L171.52 731.8 L171.52 731.8" class="st10"/><rect width="42.874" height="9.6" x="68.563" y="727.001" class="st14"/><text x="68.56" y="734.2" class="st13">attach VMDK</text></g><g id="shape61-189" transform="translate(-195.3,641.801) rotate(-90)"><title>Activation.69</title><rect width="216" height="9" x="0" y="722.801" class="st15"/></g><g id="shape62-191" transform="translate(536.501,-198)"><title>Self Message.24.70</title><desc>extract data</desc><path d="M0 695.8 L18 695.8 L18 731.8 L8.48 731.8 L8.48 731.8" class="st10"/><rect width="39.163" height="9.6" x="-19.582" y="709.001" class="st14"/><text x="-19.58" y="716.2" class="st13">extract data</text></g><g id="shape63-198" transform="translate(536.501,-234)"><title>Self Message.24.71</title><desc>mount VMDK</desc><path d="M0 695.8 L18 695.8 L18 731.8 L8.48 731.8 L8.48 731.8" class="st10"/><rect width="43.96" height="9.6" x="-21.981" y="709.001" class="st14"/><text x="-21.98" y="716.2" class="st13">mount VMDK</text></g><g id="shape64-205" transform="translate(536.501,-162)"><title>Self Message.24.73</title><desc>unmount VMDK</desc><path d="M0 695.8 L18 695.8 L18 731.8 L8.48 731.8 L8.48 731.8" class="st10"/><rect width="52.367" height="9.6" x="-26.184" y="709.001" class="st14"/><text x="-26.18" y="716.2" class="st13">unmount VMDK</text></g><g id="shape65-212" transform="translate(536.501,-144)"><title>Message.22.74</title><desc>detach VMDK</desc><path d="M0 731.8 L167.02 731.8 L167.02 731.8" class="st10"/><rect width="44.546" height="9.6" x="65.477" y="727.001" class="st14"/><text x="65.48" y="734.2" class="st13">detach VMDK</text></g><g id="group66-219" transform="translate(298,-180)"><title>Optional fragment.75</title><g id="shape67-220" transform="translate(0.00118568,0)"><title>shape75-237</title><rect width="189" height="238.5" x="0" y="493.301" class="st1"/></g><g id="shape68-222" transform="translate(0,-203.293)"><title>Sheet.68</title><desc>layer does not exist</desc><text x="4" y="725.4" class="st4">layer does not exist</text></g><g id="shape69-224" transform="translate(0.00118568,-220.896)"><title>Sheet.69</title><desc>opt</desc><path d="M0 731.8 L56.8 731.8 L64 724.6 L64 714.2 L0 714.2 L0 731.8 Z" class="st2"/><text x="4" y="725.4" class="st3">opt</text></g></g><g id="shape70-227" transform="translate(-447.3,632.801) rotate(-90)"><title>Activation.72</title><rect width="450" height="9" x="0" y="722.801" class="st15"/></g><g id="shape71-229" transform="translate(284.501,-315)"><title>Self Message.24</title><desc>cache and/or stream</desc><path d="M0 695.8 L18 695.8 L18 731.8 L8.48 731.8 L8.48 731.8" class="st10"/><rect width="67.535" height="9.6" x="24.733" y="709.001" class="st14"/><text x="24.73" y="716.2" class="st13">cache and/or stream</text></g><g id="shape72-236" transform="translate(284.501,-369)"><title>Return Message.26.51</title><desc>blob data</desc><path d="M103.5 731.8 L0 731.8" class="st16"/><rect width="30.816" height="9.6" x="36.342" y="727.001" class="st14"/><text x="36.34" y="734.2" class="st13">blob data</text></g><g id="shape73-243" transform="translate(284.501,-378)"><title>Message.22.78</title><desc>get fsLayer</desc><path d="M0 731.8 L95.02 731.8 L95.02 731.8" class="st10"/><rect width="35.39" height="9.6" x="34.055" y="727.001" class="st14"/><text x="34.05" y="734.2" class="st13">get fsLayer</text></g><g id="shape74-250" transform="translate(275.501,-108)"><title>Return Message.26.79</title><desc>handle</desc><path d="M252 731.8 L0 731.8" class="st16"/><rect width="22.258" height="9.6" x="114.871" y="727.001" class="st14"/><text x="114.87" y="734.2" class="st13">handle</text></g><g id="shape75-257" transform="translate(536.501,-108)"><title>Self Message.24.80</title><desc>store layer metadata</desc><path d="M0 695.8 L18 695.8 L18 731.8 L8.48 731.8 L8.48 731.8" class="st10"/><rect width="67.902" height="9.6" x="6.549" y="709.001" class="st14"/><text x="6.55" y="716.2" class="st13">store layer metadata</text></g><g id="shape76-264" transform="translate(172.001,-99.0001)"><title>Return Message.26.81</title><desc>ongoing status update</desc><path d="M103.5 731.8 L0 731.8" class="st16"/><rect width="72.581" height="9.6" x="15.459" y="727.001" class="st14"/><text x="15.46" y="734.2" class="st13">ongoing status update</text></g><g id="shape77-271" transform="translate(46.0004,-99.0001)"><title>Return Message.26.82</title><path d="M121.5 731.8 L0 731.8" class="st16"/></g><g id="shape78-276" transform="translate(172.001,-621.001)"><title>Message.22.83</title><desc>possible audit log mapping for all operations over this conne...</desc><path d="M0 731.8 L531.52 731.8 L531.52 731.8" class="st17"/><rect width="212.619" height="9.6" x="163.691" y="727.001" class="st14"/><text x="163.69" y="734.2" class="st13">possible audit log mapping for all operations over this connection</text></g></g></svg>